<svg width="201" height="16" viewBox="0 0 201 16" fill="none" xmlns="http://www.w3.org/2000/svg">
<path d="M11.9492 15H8.54102L3.50195 6.15234V15H0.0742188V0.78125H3.50195L8.53125 9.62891V0.78125H11.9492V15ZM30.1582 8.18359C30.1582 9.57031 29.901 10.7975 29.3867 11.8652C28.8724 12.9329 28.14 13.7565 27.1895 14.3359C26.2454 14.9089 25.168 15.1953 23.957 15.1953C22.7461 15.1953 21.6719 14.9186 20.7344 14.3652C19.7969 13.8053 19.0645 13.0078 18.5371 11.9727C18.0163 10.9375 17.7428 9.74935 17.7168 8.4082V7.60742C17.7168 6.21419 17.9707 4.98698 18.4785 3.92578C18.9928 2.85807 19.7253 2.03451 20.6758 1.45508C21.6328 0.875651 22.7201 0.585938 23.9375 0.585938C25.1419 0.585938 26.2161 0.872396 27.1602 1.44531C28.1042 2.01823 28.8366 2.83529 29.3574 3.89648C29.8848 4.95117 30.1517 6.16211 30.1582 7.5293V8.18359ZM26.6719 7.58789C26.6719 6.17513 26.4342 5.10417 25.959 4.375C25.4902 3.63932 24.8164 3.27148 23.9375 3.27148C22.2188 3.27148 21.3105 4.56055 21.2129 7.13867L21.2031 8.18359C21.2031 9.57682 21.4342 10.6478 21.8965 11.3965C22.3587 12.1452 23.0456 12.5195 23.957 12.5195C24.8229 12.5195 25.4902 12.1517 25.959 11.416C26.4277 10.6803 26.6654 9.6224 26.6719 8.24219V7.58789ZM46.248 3.42773H41.9805V15H38.5527V3.42773H34.3633V0.78125H46.248V3.42773ZM65.3809 9.98047H63.5254V15H60.0977V0.78125H65.6934C67.3796 0.78125 68.6979 1.1556 69.6484 1.9043C70.599 2.65299 71.0742 3.71094 71.0742 5.07812C71.0742 6.06771 70.8724 6.88802 70.4688 7.53906C70.0716 8.1901 69.4466 8.71745 68.5938 9.12109L71.5625 14.8535V15H67.8906L65.3809 9.98047ZM63.5254 7.33398H65.6934C66.3444 7.33398 66.8327 7.16471 67.1582 6.82617C67.4902 6.48112 67.6562 6.0026 67.6562 5.39062C67.6562 4.77865 67.4902 4.30013 67.1582 3.95508C66.8262 3.60352 66.3379 3.42773 65.6934 3.42773H63.5254V7.33398ZM85.9629 8.97461H80.5723V12.3633H86.9395V15H77.1445V0.78125H86.959V3.42773H80.5723V6.42578H85.9629V8.97461ZM103.84 10.1855C103.794 11.1751 103.527 12.0508 103.039 12.8125C102.551 13.5677 101.864 14.1536 100.979 14.5703C100.1 14.987 99.0938 15.1953 97.9609 15.1953C96.0924 15.1953 94.6211 14.5866 93.5469 13.3691C92.4727 12.1517 91.9355 10.4329 91.9355 8.21289V7.50977C91.9355 6.11654 92.1764 4.89909 92.6582 3.85742C93.1465 2.80924 93.8464 2.00195 94.7578 1.43555C95.6693 0.86263 96.724 0.576172 97.9219 0.576172C99.6471 0.576172 101.034 1.0319 102.082 1.94336C103.13 2.84831 103.726 4.09831 103.869 5.69336H100.451C100.425 4.82747 100.207 4.20573 99.7969 3.82812C99.3867 3.45052 98.7617 3.26172 97.9219 3.26172C97.069 3.26172 96.444 3.58073 96.0469 4.21875C95.6497 4.85677 95.4414 5.87565 95.4219 7.27539V8.28125C95.4219 9.79818 95.6107 10.8822 95.9883 11.5332C96.3724 12.1842 97.0299 12.5098 97.9609 12.5098C98.7487 12.5098 99.3509 12.3242 99.7676 11.9531C100.184 11.582 100.406 10.9928 100.432 10.1855H103.84ZM121.502 8.18359C121.502 9.57031 121.245 10.7975 120.73 11.8652C120.216 12.9329 119.484 13.7565 118.533 14.3359C117.589 14.9089 116.512 15.1953 115.301 15.1953C114.09 15.1953 113.016 14.9186 112.078 14.3652C111.141 13.8053 110.408 13.0078 109.881 11.9727C109.36 10.9375 109.087 9.74935 109.061 8.4082V7.60742C109.061 6.21419 109.314 4.98698 109.822 3.92578C110.337 2.85807 111.069 2.03451 112.02 1.45508C112.977 0.875651 114.064 0.585938 115.281 0.585938C116.486 0.585938 117.56 0.872396 118.504 1.44531C119.448 2.01823 120.18 2.83529 120.701 3.89648C121.229 4.95117 121.495 6.16211 121.502 7.5293V8.18359ZM118.016 7.58789C118.016 6.17513 117.778 5.10417 117.303 4.375C116.834 3.63932 116.16 3.27148 115.281 3.27148C113.562 3.27148 112.654 4.56055 112.557 7.13867L112.547 8.18359C112.547 9.57682 112.778 10.6478 113.24 11.3965C113.702 12.1452 114.389 12.5195 115.301 12.5195C116.167 12.5195 116.834 12.1517 117.303 11.416C117.771 10.6803 118.009 9.6224 118.016 8.24219V7.58789ZM132.553 9.98047H130.697V15H127.27V0.78125H132.865C134.551 0.78125 135.87 1.1556 136.82 1.9043C137.771 2.65299 138.246 3.71094 138.246 5.07812C138.246 6.06771 138.044 6.88802 137.641 7.53906C137.243 8.1901 136.618 8.71745 135.766 9.12109L138.734 14.8535V15H135.062L132.553 9.98047ZM130.697 7.33398H132.865C133.516 7.33398 134.005 7.16471 134.33 6.82617C134.662 6.48112 134.828 6.0026 134.828 5.39062C134.828 4.77865 134.662 4.30013 134.33 3.95508C133.998 3.60352 133.51 3.42773 132.865 3.42773H130.697V7.33398ZM144.316 15V0.78125H148.896C150.153 0.78125 151.283 1.06771 152.285 1.64062C153.288 2.20703 154.069 3.01107 154.629 4.05273C155.195 5.08789 155.482 6.25 155.488 7.53906V8.19336C155.488 9.49544 155.212 10.6641 154.658 11.6992C154.111 12.7279 153.337 13.5352 152.334 14.1211C151.338 14.7005 150.225 14.9935 148.994 15H144.316ZM147.744 3.42773V12.3633H148.936C149.919 12.3633 150.674 12.015 151.201 11.3184C151.729 10.6152 151.992 9.57357 151.992 8.19336V7.57812C151.992 6.20443 151.729 5.16927 151.201 4.47266C150.674 3.77604 149.906 3.42773 148.896 3.42773H147.744ZM164.898 15H161.48V0.78125H164.898V15ZM183.156 15H179.748L174.709 6.15234V15H171.281V0.78125H174.709L179.738 9.62891V0.78125H183.156V15ZM200.965 13.2422C200.438 13.8281 199.666 14.3001 198.65 14.6582C197.635 15.0163 196.521 15.1953 195.311 15.1953C193.449 15.1953 191.961 14.6257 190.848 13.4863C189.734 12.347 189.139 10.7617 189.061 8.73047L189.051 7.5C189.051 6.10026 189.298 4.87956 189.793 3.83789C190.288 2.78971 190.994 1.98568 191.912 1.42578C192.837 0.859375 193.904 0.576172 195.115 0.576172C196.886 0.576172 198.26 0.983073 199.236 1.79688C200.219 2.60417 200.792 3.81185 200.955 5.41992H197.654C197.537 4.62565 197.283 4.05924 196.893 3.7207C196.502 3.38216 195.949 3.21289 195.232 3.21289C194.373 3.21289 193.709 3.57747 193.24 4.30664C192.771 5.03581 192.534 6.07747 192.527 7.43164V8.29102C192.527 9.71029 192.768 10.778 193.25 11.4941C193.738 12.2038 194.503 12.5586 195.545 12.5586C196.437 12.5586 197.101 12.36 197.537 11.9629V9.75586H195.154V7.40234H200.965V13.2422Z" fill="white"/>
</svg>
