<svg width="86" height="10" viewBox="0 0 86 10" fill="none" xmlns="http://www.w3.org/2000/svg">
<path d="M3.81445 5.98828H2.70117V9H0.644531V0.46875H4.00195C5.01367 0.46875 5.80469 0.693359 6.375 1.14258C6.94531 1.5918 7.23047 2.22656 7.23047 3.04688C7.23047 3.64062 7.10938 4.13281 6.86719 4.52344C6.62891 4.91406 6.25391 5.23047 5.74219 5.47266L7.52344 8.91211V9H5.32031L3.81445 5.98828ZM2.70117 4.40039H4.00195C4.39258 4.40039 4.68555 4.29883 4.88086 4.0957C5.08008 3.88867 5.17969 3.60156 5.17969 3.23438C5.17969 2.86719 5.08008 2.58008 4.88086 2.37305C4.68164 2.16211 4.38867 2.05664 4.00195 2.05664H2.70117V4.40039ZM16.1637 5.38477H12.9293V7.41797H16.7496V9H10.8727V0.46875H16.7613V2.05664H12.9293V3.85547H16.1637V5.38477ZM26.8898 6.11133C26.8625 6.70508 26.7023 7.23047 26.4094 7.6875C26.1164 8.14062 25.7043 8.49219 25.173 8.74219C24.6457 8.99219 24.0422 9.11719 23.3625 9.11719C22.2414 9.11719 21.3586 8.75195 20.7141 8.02148C20.0695 7.29102 19.7473 6.25977 19.7473 4.92773V4.50586C19.7473 3.66992 19.8918 2.93945 20.1809 2.31445C20.4738 1.68555 20.8937 1.20117 21.4406 0.861328C21.9875 0.517578 22.6203 0.345703 23.3391 0.345703C24.3742 0.345703 25.2062 0.619141 25.8352 1.16602C26.4641 1.70898 26.8215 2.45898 26.9074 3.41602H24.8566C24.841 2.89648 24.7102 2.52344 24.4641 2.29688C24.218 2.07031 23.843 1.95703 23.3391 1.95703C22.8273 1.95703 22.4523 2.14844 22.2141 2.53125C21.9758 2.91406 21.8508 3.52539 21.8391 4.36523V4.96875C21.8391 5.87891 21.9523 6.5293 22.1789 6.91992C22.4094 7.31055 22.8039 7.50586 23.3625 7.50586C23.8352 7.50586 24.1965 7.39453 24.4465 7.17188C24.6965 6.94922 24.8293 6.5957 24.8449 6.11133H26.8898ZM37.4871 4.91016C37.4871 5.74219 37.3328 6.47852 37.0242 7.11914C36.7156 7.75977 36.2762 8.25391 35.7059 8.60156C35.1395 8.94531 34.493 9.11719 33.7664 9.11719C33.0398 9.11719 32.3953 8.95117 31.8328 8.61914C31.2703 8.2832 30.8309 7.80469 30.5145 7.18359C30.202 6.5625 30.0379 5.84961 30.0223 5.04492V4.56445C30.0223 3.72852 30.1746 2.99219 30.4793 2.35547C30.7879 1.71484 31.2273 1.2207 31.7977 0.873047C32.3719 0.525391 33.0242 0.351562 33.7547 0.351562C34.4773 0.351562 35.1219 0.523437 35.6883 0.867188C36.2547 1.21094 36.6941 1.70117 37.0066 2.33789C37.323 2.9707 37.4832 3.69727 37.4871 4.51758V4.91016ZM35.3953 4.55273C35.3953 3.70508 35.2527 3.0625 34.9676 2.625C34.6863 2.18359 34.282 1.96289 33.7547 1.96289C32.7234 1.96289 32.1785 2.73633 32.1199 4.2832L32.1141 4.91016C32.1141 5.74609 32.2527 6.38867 32.5301 6.83789C32.8074 7.28711 33.2195 7.51172 33.7664 7.51172C34.2859 7.51172 34.6863 7.29102 34.9676 6.84961C35.2488 6.4082 35.3914 5.77344 35.3953 4.94531V4.55273ZM44.1176 5.98828H43.0043V9H40.9477V0.46875H44.3051C45.3168 0.46875 46.1078 0.693359 46.6781 1.14258C47.2484 1.5918 47.5336 2.22656 47.5336 3.04688C47.5336 3.64062 47.4125 4.13281 47.1703 4.52344C46.932 4.91406 46.557 5.23047 46.0453 5.47266L47.8266 8.91211V9H45.6234L44.1176 5.98828ZM43.0043 4.40039H44.3051C44.6957 4.40039 44.9887 4.29883 45.184 4.0957C45.3832 3.88867 45.4828 3.60156 45.4828 3.23438C45.4828 2.86719 45.3832 2.58008 45.184 2.37305C44.9848 2.16211 44.6918 2.05664 44.3051 2.05664H43.0043V4.40039ZM51.1758 9V0.46875H53.9238C54.6777 0.46875 55.3555 0.640625 55.957 0.984375C56.5586 1.32422 57.0273 1.80664 57.3633 2.43164C57.7031 3.05273 57.875 3.75 57.8789 4.52344V4.91602C57.8789 5.69727 57.7129 6.39844 57.3809 7.01953C57.0527 7.63672 56.5879 8.12109 55.9863 8.47266C55.3887 8.82031 54.7207 8.99609 53.9824 9H51.1758ZM53.2324 2.05664V7.41797H53.9473C54.5371 7.41797 54.9902 7.20898 55.3066 6.79102C55.623 6.36914 55.7812 5.74414 55.7812 4.91602V4.54688C55.7812 3.72266 55.623 3.10156 55.3066 2.68359C54.9902 2.26562 54.5293 2.05664 53.9238 2.05664H53.2324ZM63.525 9H61.4742V0.46875H63.525V9ZM74.4797 9H72.4348L69.4113 3.69141V9H67.3547V0.46875H69.4113L72.4289 5.77734V0.46875H74.4797V9ZM85.1648 7.94531C84.8484 8.29688 84.3855 8.58008 83.7762 8.79492C83.1668 9.00977 82.4988 9.11719 81.7723 9.11719C80.6551 9.11719 79.7625 8.77539 79.0945 8.0918C78.4266 7.4082 78.0691 6.45703 78.0223 5.23828L78.0164 4.5C78.0164 3.66016 78.1648 2.92773 78.4617 2.30273C78.7586 1.67383 79.1824 1.19141 79.7332 0.855469C80.2879 0.515625 80.9285 0.345703 81.6551 0.345703C82.7176 0.345703 83.5418 0.589844 84.1277 1.07812C84.7176 1.5625 85.0613 2.28711 85.159 3.25195H83.1785C83.1082 2.77539 82.9559 2.43555 82.7215 2.23242C82.4871 2.0293 82.1551 1.92773 81.7254 1.92773C81.2098 1.92773 80.8113 2.14648 80.5301 2.58398C80.2488 3.02148 80.1062 3.64648 80.1023 4.45898V4.97461C80.1023 5.82617 80.2469 6.4668 80.5359 6.89648C80.8289 7.32227 81.2879 7.53516 81.9129 7.53516C82.448 7.53516 82.8465 7.41602 83.1082 7.17773V5.85352H81.6785V4.44141H85.1648V7.94531Z" fill="white"/>
</svg>
