<svg width="12" height="24" viewBox="0 0 12 24" fill="none" xmlns="http://www.w3.org/2000/svg">
<path fill-rule="evenodd" clip-rule="evenodd" d="M2 4.07068L3 5.07068L3 10.9293L2 11.9293L1 10.9293V5.07068L2 4.07068ZM1 18.9293V13.0707L2 12.0707L3 13.0707L3 18.9293L2 19.9293L1 18.9293Z" fill="white" fill-opacity="0.2"/>
<path fill-rule="evenodd" clip-rule="evenodd" d="M3.07074 5H8.92932L9.92932 4L8.92932 3H3.07074L2.07074 4L3.07074 5ZM2.07074 12L3.07074 13H8.92932L9.92932 12L8.92932 11H3.07074L2.07074 12ZM11 13.0707L10 12.0707L9.00003 13.0707V18.9293L10 19.9293L11 18.9293V13.0707ZM3.07074 21L2.07074 20L3.07074 19H8.92932L9.92932 20L8.92932 21H3.07074ZM10 4.07071L11 5.07071V10.9293L10 11.9293L9.00003 10.9293V5.07071L10 4.07071Z" fill="white"/>
</svg>
