<svg width="12" height="24" viewBox="0 0 12 24" fill="none" xmlns="http://www.w3.org/2000/svg">
<path fill-rule="evenodd" clip-rule="evenodd" d="M8.92929 5H3.07071L2.07071 4L3.07071 3H8.92929L9.92929 4L8.92929 5ZM1 13.0707V18.9293L2 19.9293L3 18.9293L3 13.0707L2 12.0707L1 13.0707ZM3.07071 21L2.07071 20L3.07071 19H8.92929L9.92929 20L8.92929 21H3.07071Z" fill="white" fill-opacity="0.2"/>
<path fill-rule="evenodd" clip-rule="evenodd" d="M3 5.07068L2 4.07068L1 5.07068V10.9293L2 11.9293L3 10.9293L3 5.07068ZM2.07071 12L3.07071 13H8.92929L9.92929 12L8.92929 11H3.07071L2.07071 12ZM10 12.0707L11 13.0707V18.9293L10 19.9293L9 18.9293V13.0707L10 12.0707ZM10 4.07068L11 5.07068V10.9293L10 11.9293L9 10.9293V5.07068L10 4.07068Z" fill="white"/>
</svg>
