<svg width="12" height="24" viewBox="0 0 12 24" fill="none" xmlns="http://www.w3.org/2000/svg">
<path fill-rule="evenodd" clip-rule="evenodd" d="M8.92929 5H3.07071L2.07071 4L3.07071 3H8.92929L9.92929 4L8.92929 5ZM3 5.07071L2 4.07071L1 5.07071V10.9293L2 11.9293L3 10.9293L3 5.07071ZM2.07071 12L3.07071 13H8.92929L9.92929 12L8.92929 11H3.07071L2.07071 12ZM11 13.0707L10 12.0707L9 13.0707V18.9293L10 19.9293L11 18.9293V13.0707ZM3.07071 21L2.07071 20L3.07071 19H8.92929L9.92929 20L8.92929 21H3.07071Z" fill="white"/>
<path fill-rule="evenodd" clip-rule="evenodd" d="M10 4.07068L11 5.07068V10.9293L10 11.9293L9 10.9293V5.07068L10 4.07068ZM1 18.9293V13.0707L2 12.0707L3 13.0707L3 18.9293L2 19.9293L1 18.9293Z" fill="white" fill-opacity="0.2"/>
<path d="M0 0V-1H-1V0H0ZM12 0H13V-1H12V0ZM12 24V25H13V24H12ZM0 24H-1V25H0V24ZM0 1H12V-1H0V1ZM11 0V24H13V0H11ZM12 23H0V25H12V23ZM1 24V0H-1V24H1Z" fill="black"/>
</svg>
