<svg width="12" height="24" viewBox="0 0 12 24" fill="none" xmlns="http://www.w3.org/2000/svg">
<path fill-rule="evenodd" clip-rule="evenodd" d="M3.07068 21L2.07068 20L3.07068 19H8.92926L9.92926 20L8.92926 21H3.07068Z" fill="white" fill-opacity="0.2"/>
<path fill-rule="evenodd" clip-rule="evenodd" d="M11 13.0707L10 12.0707L9 13.0707V18.9293L10 19.9293L11 18.9293L11 13.0707Z" fill="white" fill-opacity="0.2"/>
<path fill-rule="evenodd" clip-rule="evenodd" d="M3.07068 13L2.07068 12L3.07068 11H8.92926L9.92926 12L8.92926 13H3.07068Z" fill="white" fill-opacity="0.2"/>
<path fill-rule="evenodd" clip-rule="evenodd" d="M1 13.0707V18.9293L2 19.9293L3 18.9293L3 13.0707L2 12.0707L1 13.0707Z" fill="white" fill-opacity="0.2"/>
<path fill-rule="evenodd" clip-rule="evenodd" d="M3 5.07068L2 4.07068L1 5.07068V10.9293L2 11.9293L3 10.9293L3 5.07068Z" fill="white" fill-opacity="0.2"/>
<path fill-rule="evenodd" clip-rule="evenodd" d="M3.07068 5H8.92926L9.92926 4L8.92926 3H3.07068L2.07068 4L3.07068 5Z" fill="white" fill-opacity="0.2"/>
<path fill-rule="evenodd" clip-rule="evenodd" d="M11 5.07068L10 4.07068L9 5.07068V10.9293L10 11.9293L11 10.9293L11 5.07068Z" fill="white" fill-opacity="0.2"/>
</svg>
