<svg width="213" height="86" viewBox="0 0 213 86" fill="none" xmlns="http://www.w3.org/2000/svg">
<path fill-rule="evenodd" clip-rule="evenodd" d="M31.0882 74.3267C30.9037 74.8805 30.4733 75.2496 29.6741 75.2496H25.1858C24.448 75.2496 24.0791 75.065 23.8946 74.3267L19.6523 58.3907C19.2219 56.791 19.0374 54.8836 18.7915 53.0378C18.607 54.9451 18.3611 56.8526 17.9307 58.3907L13.5654 74.3267C13.4424 74.8805 12.9506 75.2496 12.1513 75.2496H7.60153C6.86373 75.2496 6.49483 75.065 6.31038 74.3267L0.0390792 51.3764C-0.145371 50.5766 0.346493 50.1459 1.02281 50.1459H3.91253C4.71181 50.1459 5.1422 50.392 5.32665 51.1919L9.26159 67.5585C9.69197 69.4044 9.81493 71.3733 9.99938 73.1577C10.3068 71.4348 10.5527 69.4044 11.0446 67.6201L15.4099 51.1304C15.5944 50.4535 16.1477 50.1459 16.8855 50.1459H20.4516C21.1894 50.1459 21.8042 50.5151 21.9886 51.1919L26.4154 67.6201C26.9073 69.4044 27.1532 71.3733 27.3992 73.1576C27.6451 71.4348 27.8911 69.4044 28.26 67.6201L31.8875 51.1304C32.0104 50.4535 32.6253 50.1459 33.3631 50.1459H36.0684C36.7447 50.1459 37.2366 50.5766 37.0521 51.3764L31.0882 74.3267ZM55.2511 75.4957C48.0576 75.4957 43.3848 70.5734 43.3848 62.5131C43.3848 54.5145 48.0576 49.7152 55.2511 49.7152C62.4447 49.7152 66.9945 54.576 66.9945 62.5131C66.9945 70.5734 62.4447 75.4957 55.2511 75.4957ZM55.1282 53.2223C50.8858 53.2223 48.488 56.2988 48.488 62.5747C48.488 68.9737 50.8244 72.1117 55.1282 72.1117C59.3705 72.1117 61.7684 69.0352 61.7684 62.5747C61.7069 56.2988 59.3705 53.2223 55.1282 53.2223ZM90.0507 53.6531C89.8663 54.3914 89.313 54.8221 88.2677 54.576C87.407 54.3914 85.9929 54.0222 84.8247 54.0222C83.0416 54.0222 80.6438 56.0526 80.6438 60.6058V74.2036C80.6438 74.7574 80.0289 75.2496 79.3526 75.2496H77.0162C76.3399 75.2496 75.7251 74.7574 75.7251 74.2036V51.1919C75.7251 50.5766 76.3399 50.1459 77.0162 50.1459H78.4304C79.0452 50.1459 79.5371 50.392 79.7215 50.9458L80.5823 53.7761C82.3039 51.315 84.6402 49.7767 87.5299 49.7767C89.4974 49.7767 91.0345 50.5766 90.7271 51.6226L90.0507 53.6531ZM146.492 75.0035H145.201C144.279 75.0035 143.787 74.6959 143.603 73.9575L143.111 71.8656C141.328 74.3882 139.114 75.4342 135.856 75.4342C129.462 75.4342 126.141 71.0657 126.141 62.6362C126.141 57.4678 127.002 54.9451 129.093 52.5456C130.691 50.6997 133.335 49.7152 136.04 49.7152C139.053 49.7152 141.328 50.9458 142.988 53.4069V39.2553C142.988 38.64 143.603 38.2094 144.279 38.2094H146.492C147.169 38.2094 147.784 38.64 147.784 39.2553V73.9575C147.784 74.5728 147.169 75.0035 146.492 75.0035ZM137.086 53.1608C135.241 53.1608 133.827 53.8376 132.966 55.1913C132.105 56.5449 131.429 58.7599 131.429 62.5747C131.429 69.2198 133.151 71.9886 137.024 71.9886C141.02 71.9886 143.049 68.9737 143.049 62.6978C143.111 56.4834 140.898 53.1608 137.086 53.1608ZM118.395 75.2496H114.644C114.029 75.2496 113.537 74.8805 113.168 74.3882L103.639 62.2671V74.2036C103.639 74.7574 103.024 75.2496 102.347 75.2496H100.134C99.4577 75.2496 98.8428 74.7574 98.8428 74.2036V39.3784C98.8428 38.7631 99.4577 38.3324 100.134 38.3324H102.347C103.024 38.3324 103.639 38.7631 103.639 39.3784V61.7748L113.414 50.8843C113.722 50.4535 114.214 50.0844 115.013 50.0844H118.333C119.194 50.0844 119.501 50.8227 119.009 51.315L108.557 61.7748L119.009 73.896C119.501 74.5113 119.255 75.2496 118.395 75.2496ZM184.182 51.1919C183.936 50.6381 184.551 50.1459 185.288 50.1459H188.178C188.977 50.1459 189.531 50.5151 189.777 51.1919L195.556 66.3895C195.802 67.1278 196.048 68.1738 196.233 69.0352C196.417 68.2353 196.847 66.7587 197.278 65.4666L201.889 51.1919C202.073 50.5151 202.688 50.2074 203.488 50.2074H206.316C207.054 50.2074 207.607 50.6996 207.423 51.2534L197.831 78.8183C196.847 81.6486 194.941 83.8636 191.683 85.0942L190.33 85.5865C189.777 85.771 188.977 85.648 188.609 85.1558L187.686 83.7406C187.44 83.3099 187.748 82.51 188.363 82.3254L189.346 81.9562C191.806 81.0948 193.589 78.3876 194.327 75.0035L184.182 51.1919ZM167.643 49.7152C174.836 49.7152 178.525 54.5145 178.464 62.5131V74.019C178.464 74.5728 177.849 75.065 177.173 75.065H175.882C174.959 75.065 174.467 74.7574 174.283 74.019L173.791 71.8655C172.008 74.4497 170.164 75.4342 167.274 75.4342C160.572 75.4342 156.268 70.635 156.268 62.5747C156.268 54.576 160.449 49.7152 167.643 49.7152ZM167.52 71.9271C171.762 71.9271 173.791 68.9737 173.791 62.5132C173.791 56.2372 171.762 53.1608 167.52 53.1608C163.277 53.1608 161.433 56.2372 161.433 62.5132C161.433 68.9737 163.277 71.9271 167.52 71.9271ZM210.506 68.7806C210.916 68.9532 211.284 69.2075 211.608 69.53C211.915 69.8433 212.155 70.2076 212.313 70.6044C212.479 71.0147 212.561 71.4398 212.561 71.8938C212.561 72.3569 212.479 72.7814 212.302 73.1924C212.137 73.6076 211.894 73.9578 211.571 74.276C211.247 74.5899 210.877 74.8325 210.47 75.0076C210.063 75.1759 209.635 75.2588 209.192 75.2588C208.745 75.2588 208.312 75.1661 207.904 75.0002C207.496 74.8233 207.124 74.5622 206.803 74.2397C206.487 73.9234 206.256 73.5609 206.09 73.1641C205.921 72.7538 205.836 72.3391 205.836 71.8938C205.836 71.5866 205.883 71.2918 205.959 70.992C206.042 70.7057 206.162 70.4201 206.329 70.1412C206.636 69.6314 207.035 69.2345 207.532 68.9464C208.035 68.6583 208.588 68.5195 209.192 68.5195C209.653 68.5195 210.091 68.603 210.506 68.7806ZM208.135 69.2812C207.799 69.4096 207.506 69.6148 207.247 69.8734C206.966 70.1412 206.766 70.457 206.615 70.8071C206.469 71.1536 206.394 71.5129 206.394 71.8846C206.394 72.2562 206.459 72.6156 206.596 72.9497C206.736 73.2845 206.94 73.5886 207.2 73.8478C207.467 74.1193 207.775 74.3319 208.118 74.4793C208.46 74.6261 208.818 74.7004 209.192 74.7004C209.552 74.7004 209.904 74.6261 210.247 74.4885C210.589 74.3497 210.904 74.147 211.183 73.8773C211.441 73.6285 211.644 73.3306 211.792 72.989C211.934 72.6543 212.007 72.3017 212.007 71.9398C212.007 71.5412 211.941 71.1714 211.803 70.8304C211.672 70.4938 211.468 70.1867 211.211 69.9195C210.932 69.6406 210.635 69.428 210.293 69.288C209.953 69.1491 209.588 69.0736 209.201 69.0736C208.818 69.0736 208.46 69.1424 208.135 69.2812ZM209.266 69.9545C209.791 69.9545 210.192 70.0491 210.459 70.226C210.726 70.4109 210.856 70.6695 210.856 71.0338C210.856 71.2832 210.784 71.4853 210.643 71.6603C210.496 71.8385 210.293 71.9589 210.043 72.0228L210.877 73.6924H209.867L209.155 72.1641H208.71V73.6924H207.799V69.9545H209.266ZM208.71 71.6149H209.155C209.422 71.6149 209.616 71.5682 209.737 71.4853C209.859 71.4023 209.923 71.274 209.923 71.0884C209.923 70.9017 209.859 70.7616 209.729 70.6695C209.588 70.5774 209.386 70.5307 209.109 70.5307H208.71V71.6149Z" fill="white"/>
<path fill-rule="evenodd" clip-rule="evenodd" d="M61.5222 39.3169C69.6994 20.0584 88.7593 6.58355 110.955 6.58355C133.15 6.58355 152.21 20.0584 160.387 39.3169C160.879 40.609 162.109 41.5319 163.585 41.5319C165.429 41.5319 166.966 39.9937 166.966 38.1478C166.966 37.7171 166.905 37.2864 166.72 36.8557C157.498 15.1976 135.978 0 110.955 0C85.9311 0 64.4119 15.1976 55.1894 36.8557C55.0049 37.2249 54.9434 37.7171 54.9434 38.1478C54.9434 39.9937 56.4805 41.5319 58.325 41.5319C59.8006 41.5319 61.0302 40.609 61.5222 39.3169Z" fill="#F38B00"/>
</svg>
